<?xml version="1.0" encoding="UTF-8" standalone="no"?>
<!-- Created with Inkscape (http://www.inkscape.org/) -->

<svg
   xmlns:dc="http://purl.org/dc/elements/1.1/"
   xmlns:cc="http://creativecommons.org/ns#"
   xmlns:rdf="http://www.w3.org/1999/02/22-rdf-syntax-ns#"
   xmlns:svg="http://www.w3.org/2000/svg"
   xmlns="http://www.w3.org/2000/svg"
   xmlns:sodipodi="http://sodipodi.sourceforge.net/DTD/sodipodi-0.dtd"
   xmlns:inkscape="http://www.inkscape.org/namespaces/inkscape"
   width="148mm"
   height="108mm"
   viewBox="0 0 524.40927 382.67713"
   id="svg2"
   version="1.1"
   inkscape:version="0.91 r13725"
   sodipodi:docname="menu-icon.svg">
  <title
     id="title3420">menu-icon-new.svg</title>
  <defs
     id="defs4" />
  <sodipodi:namedview
     id="base"
     pagecolor="#ffffff"
     bordercolor="#666666"
     borderopacity="1.0"
     inkscape:pageopacity="0.0"
     inkscape:pageshadow="2"
     inkscape:zoom="0.7"
     inkscape:cx="205.20727"
     inkscape:cy="329.58322"
     inkscape:document-units="px"
     inkscape:current-layer="layer1"
     showgrid="false"
     showguides="true"
     inkscape:window-width="1280"
     inkscape:window-height="661"
     inkscape:window-x="-8"
     inkscape:window-y="-8"
     inkscape:window-maximized="1">
    <inkscape:grid
       type="xygrid"
       id="grid3374" />
  </sodipodi:namedview>
  <metadata
     id="metadata7">
    <rdf:RDF>
      <cc:Work
         rdf:about="">
        <dc:format>image/svg+xml</dc:format>
        <dc:type
           rdf:resource="http://purl.org/dc/dcmitype/StillImage" />
        <dc:title>menu-icon-new.svg</dc:title>
      </cc:Work>
    </rdf:RDF>
  </metadata>
  <g
     inkscape:label="Ebene 1"
     inkscape:groupmode="layer"
     id="layer1"
     transform="translate(0,-669.68507)">
    <flowRoot
       xml:space="preserve"
       id="flowRoot3336"
       style="font-style:normal;font-weight:normal;font-size:40px;line-height:125%;font-family:sans-serif;letter-spacing:0px;word-spacing:0px;fill:#000000;fill-opacity:1;stroke:none;stroke-width:1px;stroke-linecap:butt;stroke-linejoin:miter;stroke-opacity:1"><flowRegion
         id="flowRegion3338"><rect
           id="rect3340"
           width="637.14288"
           height="334.28571"
           x="42.857143"
           y="43.790775" /></flowRegion><flowPara
         id="flowPara3344" /></flowRoot>    <flowRoot
       xml:space="preserve"
       id="flowRoot3346"
       style="font-style:normal;font-weight:normal;font-size:40px;line-height:125%;font-family:sans-serif;letter-spacing:0px;word-spacing:0px;fill:#000000;fill-opacity:1;stroke:none;stroke-width:1px;stroke-linecap:butt;stroke-linejoin:miter;stroke-opacity:1"><flowRegion
         id="flowRegion3348"><rect
           id="rect3350"
           width="174.28572"
           height="102.85714"
           x="28.571428"
           y="26.647919" /></flowRegion><flowPara
         id="flowPara3352" /></flowRoot>    <flowRoot
       xml:space="preserve"
       id="flowRoot3354"
       style="font-style:normal;font-weight:normal;font-size:40px;line-height:125%;font-family:sans-serif;letter-spacing:0px;word-spacing:0px;fill:#000000;fill-opacity:1;stroke:none;stroke-width:1px;stroke-linecap:butt;stroke-linejoin:miter;stroke-opacity:1"><flowRegion
         id="flowRegion3356"><rect
           id="rect3358"
           width="154.28572"
           height="100"
           x="31.428572"
           y="29.505062" /></flowRegion><flowPara
         id="flowPara3360" /></flowRoot>    <g
       transform="matrix(1.2122923,0,0,1.3707108,-52.352595,590.47587)"
       style="font-style:normal;font-weight:normal;font-size:40px;line-height:125%;font-family:sans-serif;letter-spacing:0px;word-spacing:0px;fill:#000000;fill-opacity:1;stroke:none;stroke-width:1px;stroke-linecap:butt;stroke-linejoin:miter;stroke-opacity:1"
       id="flowRoot3364">
      <path
         d="m 66.152344,88.01043 -3.867188,0 0,-14.238281 -14.511719,0 0,14.238281 -3.867187,0 0,-29.082031 3.867187,0 0,11.40625 14.511719,0 0,-11.40625 3.867188,0 0,29.082031 z"
         style=""
         id="path3542" />
      <path
         d="m 90.644531,88.01043 -3.652344,0 0,-2.324218 q -0.488281,0.332031 -1.328125,0.9375 -0.820312,0.585937 -1.601562,0.9375 -0.917969,0.449218 -2.109375,0.742187 -1.191406,0.3125 -2.792969,0.3125 -2.949219,0 -5,-1.953125 -2.050781,-1.953125 -2.050781,-4.980469 0,-2.480468 1.054687,-4.003906 1.074219,-1.542969 3.046875,-2.421875 1.992188,-0.878906 4.785157,-1.191406 2.792968,-0.3125 5.996093,-0.46875 l 0,-0.566406 q 0,-1.25 -0.449218,-2.070313 -0.429688,-0.820312 -1.25,-1.289062 -0.78125,-0.449219 -1.875,-0.605469 -1.09375,-0.15625 -2.285157,-0.15625 -1.445312,0 -3.222656,0.390625 -1.777344,0.371094 -3.671875,1.09375 l -0.195312,0 0,-3.730469 q 1.074218,-0.292969 3.105468,-0.644531 2.03125,-0.351563 4.003907,-0.351563 2.304687,0 4.003906,0.390625 1.71875,0.371094 2.96875,1.289063 1.230469,0.898437 1.875,2.324219 0.644531,1.425781 0.644531,3.535156 l 0,14.804687 z m -3.652344,-5.371093 0,-6.074219 q -1.679687,0.09766 -3.964843,0.292969 -2.265625,0.195312 -3.59375,0.566406 -1.582032,0.449219 -2.558594,1.40625 -0.976563,0.9375 -0.976563,2.597656 0,1.875 1.132813,2.832031 1.132812,0.9375 3.457031,0.9375 1.933594,0 3.535156,-0.742187 1.601563,-0.761719 2.96875,-1.816406 z"
         style=""
         id="path3544" />
      <path
         d="m 115.99609,88.01043 -3.67187,0 0,-12.421875 q 0,-1.503906 -0.17578,-2.8125 -0.17578,-1.328125 -0.64453,-2.070312 -0.48828,-0.820313 -1.40625,-1.210938 -0.91797,-0.410156 -2.38282,-0.410156 -1.5039,0 -3.14453,0.742188 -1.64062,0.742187 -3.14453,1.894531 l 0,16.289062 -3.671874,0 0,-21.816406 3.671874,0 0,2.421875 q 1.71875,-1.425781 3.55469,-2.226562 1.83594,-0.800782 3.76953,-0.800782 3.53516,0 5.39063,2.128907 1.85546,2.128906 1.85546,6.132812 l 0,14.160156 z"
         style=""
         id="path3546" />
      <path
         d="m 141.30859,88.01043 -3.67187,0 0,-12.421875 q 0,-1.503906 -0.17578,-2.8125 -0.17578,-1.328125 -0.64453,-2.070312 -0.48829,-0.820313 -1.40625,-1.210938 -0.91797,-0.410156 -2.38282,-0.410156 -1.5039,0 -3.14453,0.742188 -1.64062,0.742187 -3.14453,1.894531 l 0,16.289062 -3.67187,0 0,-21.816406 3.67187,0 0,2.421875 q 1.71875,-1.425781 3.55469,-2.226562 1.83594,-0.800782 3.76953,-0.800782 3.53516,0 5.39062,2.128907 1.85547,2.128906 1.85547,6.132812 l 0,14.160156 z"
         style=""
         id="path3548" />
      <path
         d="m 165.33203,88.01043 -3.65234,0 0,-2.324218 q -0.48828,0.332031 -1.32813,0.9375 -0.82031,0.585937 -1.60156,0.9375 -0.91797,0.449218 -2.10938,0.742187 -1.1914,0.3125 -2.79296,0.3125 -2.94922,0 -5,-1.953125 -2.05079,-1.953125 -2.05079,-4.980469 0,-2.480468 1.05469,-4.003906 1.07422,-1.542969 3.04688,-2.421875 1.99218,-0.878906 4.78515,-1.191406 2.79297,-0.3125 5.9961,-0.46875 l 0,-0.566406 q 0,-1.25 -0.44922,-2.070313 -0.42969,-0.820312 -1.25,-1.289062 -0.78125,-0.449219 -1.875,-0.605469 -1.09375,-0.15625 -2.28516,-0.15625 -1.44531,0 -3.22265,0.390625 -1.77735,0.371094 -3.67188,1.09375 l -0.19531,0 0,-3.730469 q 1.07422,-0.292969 3.10547,-0.644531 2.03125,-0.351563 4.0039,-0.351563 2.30469,0 4.00391,0.390625 1.71875,0.371094 2.96875,1.289063 1.23047,0.898437 1.875,2.324219 0.64453,1.425781 0.64453,3.535156 l 0,14.804687 z m -3.65234,-5.371093 0,-6.074219 q -1.67969,0.09766 -3.96485,0.292969 -2.26562,0.195312 -3.59375,0.566406 -1.58203,0.449219 -2.55859,1.40625 -0.97656,0.9375 -0.97656,2.597656 0,1.875 1.13281,2.832031 1.13281,0.9375 3.45703,0.9375 1.93359,0 3.53516,-0.742187 1.60156,-0.761719 2.96875,-1.816406 z"
         style=""
         id="path3550" />
      <path
         d="m 209.04297,88.01043 -3.86719,0 0,-14.238281 -14.51172,0 0,14.238281 -3.86719,0 0,-29.082031 3.86719,0 0,11.40625 14.51172,0 0,-11.40625 3.86719,0 0,29.082031 z"
         style=""
         id="path3552" />
      <path
         d="m 234.84375,77.483087 -16.07422,0 q 0,2.011718 0.60547,3.515625 0.60547,1.484375 1.66016,2.441406 1.01562,0.9375 2.40234,1.40625 1.40625,0.46875 3.08594,0.46875 2.22656,0 4.47265,-0.878906 2.26563,-0.898438 3.22266,-1.757813 l 0.19531,0 0,4.003906 q -1.85547,0.78125 -3.78906,1.308594 -1.93359,0.527344 -4.0625,0.527344 -5.42969,0 -8.47656,-2.929688 -3.04688,-2.949218 -3.04688,-8.359375 0,-5.351562 2.91016,-8.496093 2.92969,-3.144532 7.69531,-3.144532 4.41406,0 6.79688,2.578125 2.40234,2.578125 2.40234,7.324219 l 0,1.992188 z m -3.57422,-2.8125 q -0.0195,-2.890625 -1.46484,-4.472657 -1.42578,-1.582031 -4.35547,-1.582031 -2.94922,0 -4.70703,1.738281 -1.73828,1.738282 -1.97266,4.316407 l 12.5,0 z"
         style=""
         id="path3554" />
      <path
         d="m 254.02344,70.19793 -0.19532,0 q -0.82031,-0.195312 -1.60156,-0.273437 -0.76172,-0.09766 -1.8164,-0.09766 -1.69922,0 -3.28125,0.761718 -1.58204,0.742188 -3.04688,1.933594 l 0,15.488281 -3.67187,0 0,-21.816406 3.67187,0 0,3.222656 q 2.1875,-1.757812 3.84766,-2.480468 1.67968,-0.742188 3.41797,-0.742188 0.95703,0 1.38671,0.05859 0.42969,0.03906 1.28907,0.175781 l 0,3.769531 z"
         style=""
         id="path3556" />
      <path
         d="m 269.25781,61.174493 -0.19531,0 q -0.60547,-0.175781 -1.58203,-0.351563 -0.97656,-0.195312 -1.71875,-0.195312 -2.36328,0 -3.4375,1.054687 -1.05469,1.035157 -1.05469,3.769532 l 0,0.742187 6.62109,0 0,3.085938 -6.5039,0 0,18.730468 -3.67188,0 0,-18.730468 -2.48047,0 0,-3.085938 2.48047,0 0,-0.722656 q 0,-3.886719 1.9336,-5.957031 1.93359,-2.089844 5.58593,-2.089844 1.23047,0 2.20704,0.117187 0.99609,0.117188 1.8164,0.273438 l 0,3.359375 z"
         style=""
         id="path3558" />
      <path
         d="m 289.66797,88.01043 -3.67188,0 0,-2.421875 q -1.85547,1.464844 -3.55468,2.246094 -1.69922,0.78125 -3.75,0.78125 -3.4375,0 -5.35157,-2.089844 -1.91406,-2.109375 -1.91406,-6.171875 l 0,-14.160156 3.67188,0 0,12.421875 q 0,1.660156 0.15625,2.851563 0.15625,1.171875 0.66406,2.011718 0.52734,0.859375 1.36719,1.25 0.83984,0.390625 2.4414,0.390625 1.42578,0 3.10547,-0.742187 1.69922,-0.742188 3.16406,-1.894531 l 0,-16.289063 3.67188,0 0,21.816406 z"
         style=""
         id="path3560" />
      <path
         d="m 310.50781,70.19793 -0.19531,0 q -0.82031,-0.195312 -1.60156,-0.273437 -0.76172,-0.09766 -1.81641,-0.09766 -1.69922,0 -3.28125,0.761718 -1.58203,0.742188 -3.04687,1.933594 l 0,15.488281 -3.67188,0 0,-21.816406 3.67188,0 0,3.222656 q 2.1875,-1.757812 3.84765,-2.480468 1.67969,-0.742188 3.41797,-0.742188 0.95703,0 1.38672,0.05859 0.42969,0.03906 1.28906,0.175781 l 0,3.769531 z"
         style=""
         id="path3562" />
      <path
         d="m 325.33203,87.815118 q -1.03516,0.273437 -2.26562,0.449219 -1.21094,0.175781 -2.16797,0.175781 -3.33985,0 -5.07813,-1.796875 -1.73828,-1.796875 -1.73828,-5.761719 l 0,-11.601562 -2.48047,0 0,-3.085938 2.48047,0 0,-6.269531 3.67188,0 0,6.269531 7.57812,0 0,3.085938 -7.57812,0 0,9.941406 q 0,1.71875 0.0781,2.695312 0.0781,0.957032 0.54688,1.796875 0.42968,0.78125 1.17187,1.152344 0.76172,0.351563 2.30469,0.351563 0.89844,0 1.875,-0.253907 0.97656,-0.273437 1.40625,-0.449218 l 0.19531,0 0,3.300781 z"
         style=""
         id="path3564" />
      <path
         d="m 348.02734,88.01043 -3.67187,0 0,-12.421875 q 0,-1.503906 -0.17578,-2.8125 -0.17578,-1.328125 -0.64453,-2.070312 -0.48829,-0.820313 -1.40625,-1.210938 -0.91797,-0.410156 -2.38282,-0.410156 -1.5039,0 -3.14453,0.742188 -1.64062,0.742187 -3.14453,1.894531 l 0,16.289062 -3.67187,0 0,-21.816406 3.67187,0 0,2.421875 q 1.71875,-1.425781 3.55469,-2.226562 1.83594,-0.800782 3.76953,-0.800782 3.53516,0 5.39062,2.128907 1.85547,2.128906 1.85547,6.132812 l 0,14.160156 z"
         style=""
         id="path3566" />
      <path
         d="m 373.35937,77.483087 -16.07421,0 q 0,2.011718 0.60546,3.515625 0.60547,1.484375 1.66016,2.441406 1.01563,0.9375 2.40234,1.40625 1.40625,0.46875 3.08594,0.46875 2.22656,0 4.47266,-0.878906 2.26562,-0.898438 3.22265,-1.757813 l 0.19532,0 0,4.003906 q -1.85547,0.78125 -3.78907,1.308594 -1.93359,0.527344 -4.0625,0.527344 -5.42968,0 -8.47656,-2.929688 -3.04687,-2.949218 -3.04687,-8.359375 0,-5.351562 2.91015,-8.496093 2.92969,-3.144532 7.69532,-3.144532 4.41406,0 6.79687,2.578125 2.40234,2.578125 2.40234,7.324219 l 0,1.992188 z m -3.57421,-2.8125 q -0.0195,-2.890625 -1.46485,-4.472657 -1.42578,-1.582031 -4.35547,-1.582031 -2.94922,0 -4.70703,1.738281 -1.73828,1.738282 -1.97265,4.316407 l 12.5,0 z"
         style=""
         id="path3568" />
      <path
         d="m 392.53906,70.19793 -0.19531,0 q -0.82031,-0.195312 -1.60156,-0.273437 -0.76172,-0.09766 -1.81641,-0.09766 -1.69922,0 -3.28125,0.761718 -1.58203,0.742188 -3.04687,1.933594 l 0,15.488281 -3.67188,0 0,-21.816406 3.67188,0 0,3.222656 q 2.1875,-1.757812 3.84765,-2.480468 1.67969,-0.742188 3.41797,-0.742188 0.95703,0 1.38672,0.05859 0.42969,0.03906 1.28906,0.175781 l 0,3.769531 z"
         style=""
         id="path3570" />
      <path
         d="m 65.039062,129.70965 q 0,1.69922 -0.800781,3.35937 -0.78125,1.66016 -2.207031,2.8125 -1.5625,1.25 -3.652344,1.95313 -2.070312,0.70312 -5,0.70312 -3.144531,0 -5.664062,-0.58593 -2.5,-0.58594 -5.097657,-1.73828 l 0,-4.84375 0.273438,0 q 2.207031,1.83593 5.097656,2.83203 2.890625,0.99609 5.429688,0.99609 3.59375,0 5.585937,-1.34766 2.011719,-1.34765 2.011719,-3.59375 0,-1.93359 -0.957031,-2.85156 -0.9375,-0.91797 -2.871094,-1.42578 -1.464844,-0.39062 -3.183594,-0.64453 -1.699219,-0.25391 -3.613281,-0.64453 -3.867188,-0.82031 -5.742188,-2.79297 -1.855468,-1.99219 -1.855468,-5.17578 0,-3.65235 3.085937,-5.97656 3.085938,-2.34375 7.832031,-2.34375 3.066407,0 5.625,0.58593 2.558594,0.58594 4.53125,1.44532 l 0,4.57031 -0.273437,0 q -1.660156,-1.40625 -4.375,-2.32422 -2.695313,-0.9375 -5.527344,-0.9375 -3.105469,0 -5,1.28906 -1.875,1.28906 -1.875,3.32031 0,1.81641 0.9375,2.85157 0.9375,1.03515 3.300781,1.58203 1.25,0.27344 3.554688,0.66406 2.304687,0.39063 3.90625,0.80078 3.242187,0.85938 4.882812,2.59766 1.640625,1.73828 1.640625,4.86328 z"
         style=""
         id="path3572" />
      <path
         d="m 89.550781,127.11199 q 0,5.33203 -2.734375,8.41797 -2.734375,3.08594 -7.324219,3.08594 -4.628906,0 -7.363281,-3.08594 -2.714844,-3.08594 -2.714844,-8.41797 0,-5.33203 2.714844,-8.41797 2.734375,-3.10546 7.363281,-3.10546 4.589844,0 7.324219,3.10546 2.734375,3.08594 2.734375,8.41797 z m -3.789062,0 q 0,-4.23828 -1.660157,-6.28906 -1.660156,-2.07031 -4.609375,-2.07031 -2.988281,0 -4.648437,2.07031 -1.640625,2.05078 -1.640625,6.28906 0,4.10157 1.660156,6.23047 1.660156,2.10938 4.628906,2.10938 2.929688,0 4.589844,-2.08985 1.679688,-2.10937 1.679688,-6.25 z"
         style=""
         id="path3574" />
      <path
         d="m 114.45313,126.83856 q 0,2.65625 -0.76172,4.86328 -0.76172,2.1875 -2.14844,3.71093 -1.28906,1.44532 -3.04688,2.2461 -1.73828,0.78125 -3.6914,0.78125 -1.69922,0 -3.08594,-0.3711 -1.36719,-0.37109 -2.792969,-1.15234 l 0,9.14063 -3.671875,0 0,-29.86329 3.671875,0 0,2.28516 q 1.464849,-1.23047 3.281249,-2.05078 1.83594,-0.83984 3.90625,-0.83984 3.94531,0 6.13281,2.98828 2.20704,2.96875 2.20704,8.26172 z m -3.78907,0.0977 q 0,-3.94531 -1.34765,-5.89844 -1.34766,-1.95312 -4.14063,-1.95312 -1.58203,0 -3.18359,0.68359 -1.60156,0.6836 -3.066409,1.79688 l 0,12.36328 q 1.562499,0.70312 2.675779,0.95703 1.13282,0.25391 2.5586,0.25391 3.0664,0 4.78515,-2.07032 1.71875,-2.07031 1.71875,-6.13281 z"
         style=""
         id="path3576" />
      <path
         d="m 133.78906,120.19793 -0.19531,0 q -0.82031,-0.19531 -1.60156,-0.27344 -0.76172,-0.0977 -1.81641,-0.0977 -1.69922,0 -3.28125,0.76172 -1.58203,0.74218 -3.04687,1.93359 l 0,15.48828 -3.67188,0 0,-21.81641 3.67188,0 0,3.22266 q 2.1875,-1.75781 3.84765,-2.48047 1.67969,-0.74219 3.41797,-0.74219 0.95703,0 1.38672,0.0586 0.42969,0.0391 1.28906,0.17578 l 0,3.76953 z"
         style=""
         id="path3578" />
      <path
         d="m 153.53516,138.01043 -3.65235,0 0,-2.32422 q -0.48828,0.33203 -1.32812,0.9375 -0.82032,0.58594 -1.60157,0.9375 -0.91796,0.44922 -2.10937,0.74219 -1.19141,0.3125 -2.79297,0.3125 -2.94922,0 -5,-1.95313 Q 135,134.70965 135,131.68231 q 0,-2.48047 1.05469,-4.00391 1.07422,-1.54297 3.04687,-2.42188 1.99219,-0.8789 4.78516,-1.1914 2.79297,-0.3125 5.99609,-0.46875 l 0,-0.56641 q 0,-1.25 -0.44922,-2.07031 -0.42968,-0.82031 -1.25,-1.28906 -0.78125,-0.44922 -1.875,-0.60547 -1.09375,-0.15625 -2.28515,-0.15625 -1.44532,0 -3.22266,0.39062 -1.77734,0.3711 -3.67187,1.09375 l -0.19532,0 0,-3.73047 q 1.07422,-0.29296 3.10547,-0.64453 2.03125,-0.35156 4.00391,-0.35156 2.30469,0 4.0039,0.39063 1.71875,0.37109 2.96875,1.28906 1.23047,0.89844 1.875,2.32422 0.64454,1.42578 0.64454,3.53515 l 0,14.80469 z m -3.65235,-5.37109 0,-6.07422 q -1.67969,0.0977 -3.96484,0.29297 -2.26563,0.19531 -3.59375,0.5664 -1.58203,0.44922 -2.5586,1.40625 -0.97656,0.9375 -0.97656,2.59766 0,1.875 1.13281,2.83203 1.13282,0.9375 3.45704,0.9375 1.93359,0 3.53515,-0.74219 1.60156,-0.76172 2.96875,-1.8164 z"
         style=""
         id="path3580" />
      <path
         d="m 178.88672,138.01043 -3.67188,0 0,-12.42187 q 0,-1.50391 -0.17578,-2.8125 -0.17578,-1.32813 -0.64453,-2.07032 -0.48828,-0.82031 -1.40625,-1.21093 -0.91797,-0.41016 -2.38281,-0.41016 -1.50391,0 -3.14453,0.74219 -1.64063,0.74218 -3.14453,1.89453 l 0,16.28906 -3.67188,0 0,-21.81641 3.67188,0 0,2.42188 q 1.71875,-1.42578 3.55468,-2.22656 1.83594,-0.80078 3.76953,-0.80078 3.53516,0 5.39063,2.1289 1.85547,2.12891 1.85547,6.13281 l 0,14.16016 z"
         style=""
         id="path3582" />
    </g>
    <rect
       style="fill:#000000"
       id="rect3378"
       width="320"
       height="40.000008"
       x="173.73602"
       y="732.39282" />
    <rect
       style="fill:#000000"
       id="rect3380"
       width="320"
       height="40"
       x="173.73602"
       y="852.39282" />
    <rect
       style="fill:#000000"
       id="rect3382"
       width="320"
       height="40"
       x="173.73602"
       y="972.39282" />
    <rect
       style="fill:#000000"
       id="rect3378-0"
       width="320"
       height="40.000008"
       x="173.98854"
       y="-829.78821"
       transform="scale(1,-1)" />
    <rect
       style="fill:#000000"
       id="rect3380-6"
       width="320"
       height="40"
       x="173.91098"
       y="914.961"
       inkscape:transform-center-x="51.51778"
       inkscape:transform-center-y="-45.456865" />
  </g>
</svg>
